<svg width="426" height="59" viewBox="0 0 426 59" fill="none" xmlns="http://www.w3.org/2000/svg">
<path d="M57.8919 30.4045H10.6584C10.8828 41.0629 18.2876 48.5798 29.7313 48.5798C38.819 48.5798 44.9896 43.6433 47.0091 36.0142H57.8919C55.4237 50.0384 44.9896 58.3407 29.5069 58.3407C11.7803 58.3407 0 46.6725 0 29.1703C0 11.6681 11.7803 0 29.5069 0C46.4482 0 58.0041 10.3218 57.8919 27.2631V30.4045ZM11.4438 22.2143H46.7847C45.1018 14.0242 38.819 9.08769 29.6191 9.08769C20.4192 9.08769 13.6876 14.5852 11.4438 22.2143Z" fill="#F56134"/>
<path d="M75.8437 29.8435C75.8437 11.6681 87.5118 0 105.351 0C123.077 0 134.858 11.6681 134.858 29.1703V58.3418H124.199V46.1116V46.2238V47.2335C124.199 51.7213 116.346 58.3407 103.107 58.3407C86.9509 58.3407 75.8437 47.0091 75.8437 29.8435ZM86.5021 29.1703C86.5021 40.9507 93.4581 48.3555 105.014 48.3555C118.926 48.3555 124.087 40.5019 124.087 29.1703C124.087 17.39 116.907 9.98524 105.351 9.98524C94.0191 9.98524 86.5021 17.7266 86.5021 29.1703Z" fill="#F56134"/>
<path d="M152.808 16.5556C152.808 5.40593 161.593 0 178.374 0C186.708 0 193.353 0.90099 199.435 3.15346V13.1769C195.493 11.7128 187.159 9.23513 177.248 9.23513C168.013 9.23513 163.508 11.4876 163.508 15.7673C163.508 27.1423 201.8 20.8353 201.8 41.1076C201.8 52.1447 193.128 58.7894 176.234 58.7894C167.9 58.7894 161.255 57.8885 155.174 55.636V45.6125C159.115 47.0766 167.562 49.5543 177.36 49.5543C186.595 49.5543 190.988 46.1756 190.988 41.8959C190.988 30.6336 152.808 36.8279 152.808 16.5556Z" fill="#F56134"/>
<path d="M230.409 8.52671C230.409 18.8485 237.702 25.9167 245.892 25.9167C256.663 25.9167 261.599 18.9607 261.599 8.52671V0H272.37V7.62917C272.37 24.5704 263.282 35.902 246.341 35.902C231.082 35.902 219.751 24.5704 219.751 7.62917V0H230.409V8.52671Z" fill="#F56134"/>
<path d="M240.73 26.9258H251.388V58.34H240.73V26.9258Z" fill="#F56134"/>
<path d="M290.32 29.1703C290.32 11.6681 302.101 0 319.827 0C337.554 0 349.334 11.6681 349.334 29.1703C349.334 46.6725 337.554 58.3407 319.827 58.3407C302.101 58.3407 290.32 46.6725 290.32 29.1703ZM300.979 29.1703C300.979 40.6141 308.496 48.3555 319.827 48.3555C331.159 48.3555 338.676 40.6141 338.676 29.1703C338.676 17.7266 331.159 9.98523 319.827 9.98523C308.496 9.98523 300.979 17.7266 300.979 29.1703Z" fill="#F56134"/>
<path d="M378.164 30.4586C378.164 40.9931 385.606 48.207 396.255 48.207C407.248 48.207 414.576 41.1076 414.576 30.4586V0H425.569V29.5425C425.569 46.8329 414.004 58.398 396.714 58.398C378.851 58.398 367.286 46.8329 367.286 29.5425V0H378.164V30.4586Z" fill="#F56134"/>
</svg>
